<mxfile host="Electron" agent="Mozilla/5.0 (Windows NT 10.0; Win64; x64) AppleWebKit/537.36 (KHTML, like Gecko) draw.io/26.2.2 Chrome/134.0.6998.178 Electron/35.1.2 Safari/537.36" version="26.2.2">
  <diagram id="R2lEEEUBdFMjLlhIrx00" name="Page-1">
    <mxGraphModel dx="1712" dy="1960" grid="1" gridSize="10" guides="1" tooltips="1" connect="1" arrows="1" fold="1" page="1" pageScale="1" pageWidth="850" pageHeight="1100" math="0" shadow="0" extFonts="Permanent Marker^https://fonts.googleapis.com/css?family=Permanent+Marker">
      <root>
        <mxCell id="0" />
        <mxCell id="1" parent="0" />
        <mxCell id="GDVbqABVd0ClRPIk_4P2-1" value="Autenticazione" style="swimlane;whiteSpace=wrap;html=1;" vertex="1" parent="1">
          <mxGeometry x="80" y="380" width="210" height="140" as="geometry">
            <mxRectangle x="270" y="420" width="120" height="30" as="alternateBounds" />
          </mxGeometry>
        </mxCell>
        <mxCell id="GDVbqABVd0ClRPIk_4P2-2" value="&amp;lt;&amp;lt;Form&amp;gt;&amp;gt; Login" style="rounded=1;whiteSpace=wrap;html=1;fillColor=#C2C2C2;" vertex="1" parent="GDVbqABVd0ClRPIk_4P2-1">
          <mxGeometry x="40" y="50" width="120" height="60" as="geometry" />
        </mxCell>
        <mxCell id="GDVbqABVd0ClRPIk_4P2-7" value="" style="ellipse;whiteSpace=wrap;html=1;aspect=fixed;" vertex="1" parent="GDVbqABVd0ClRPIk_4P2-1">
          <mxGeometry x="150" y="70" width="20" height="20" as="geometry" />
        </mxCell>
        <mxCell id="GDVbqABVd0ClRPIk_4P2-8" value="submit" style="text;html=1;align=center;verticalAlign=middle;whiteSpace=wrap;rounded=0;" vertex="1" parent="GDVbqABVd0ClRPIk_4P2-1">
          <mxGeometry x="150" y="50" width="60" height="30" as="geometry" />
        </mxCell>
        <mxCell id="GDVbqABVd0ClRPIk_4P2-9" value="Login" style="shape=hexagon;perimeter=hexagonPerimeter2;whiteSpace=wrap;html=1;fixedSize=1;fillColor=#C2C2C2;" vertex="1" parent="1">
          <mxGeometry x="370" y="440" width="90" height="40" as="geometry" />
        </mxCell>
        <mxCell id="GDVbqABVd0ClRPIk_4P2-10" style="edgeStyle=orthogonalEdgeStyle;rounded=0;orthogonalLoop=1;jettySize=auto;html=1;" edge="1" parent="1" source="GDVbqABVd0ClRPIk_4P2-7" target="GDVbqABVd0ClRPIk_4P2-9">
          <mxGeometry relative="1" as="geometry" />
        </mxCell>
        <mxCell id="GDVbqABVd0ClRPIk_4P2-40" style="edgeStyle=orthogonalEdgeStyle;rounded=0;orthogonalLoop=1;jettySize=auto;html=1;" edge="1" parent="1" source="GDVbqABVd0ClRPIk_4P2-11" target="GDVbqABVd0ClRPIk_4P2-16">
          <mxGeometry relative="1" as="geometry" />
        </mxCell>
        <mxCell id="GDVbqABVd0ClRPIk_4P2-11" value="" style="ellipse;whiteSpace=wrap;html=1;aspect=fixed;" vertex="1" parent="1">
          <mxGeometry x="430" y="430" width="20" height="20" as="geometry" />
        </mxCell>
        <mxCell id="GDVbqABVd0ClRPIk_4P2-12" value="Docente -&amp;nbsp;success" style="text;html=1;align=center;verticalAlign=middle;whiteSpace=wrap;rounded=0;" vertex="1" parent="1">
          <mxGeometry x="450" y="430" width="120" height="30" as="geometry" />
        </mxCell>
        <mxCell id="GDVbqABVd0ClRPIk_4P2-182" style="edgeStyle=orthogonalEdgeStyle;rounded=0;orthogonalLoop=1;jettySize=auto;html=1;" edge="1" parent="1" source="GDVbqABVd0ClRPIk_4P2-13">
          <mxGeometry relative="1" as="geometry">
            <mxPoint x="290" y="480" as="targetPoint" />
          </mxGeometry>
        </mxCell>
        <mxCell id="GDVbqABVd0ClRPIk_4P2-13" value="" style="ellipse;whiteSpace=wrap;html=1;aspect=fixed;" vertex="1" parent="1">
          <mxGeometry x="380" y="470" width="20" height="20" as="geometry" />
        </mxCell>
        <mxCell id="GDVbqABVd0ClRPIk_4P2-14" value="error" style="text;html=1;align=center;verticalAlign=middle;whiteSpace=wrap;rounded=0;" vertex="1" parent="1">
          <mxGeometry x="340" y="480" width="60" height="30" as="geometry" />
        </mxCell>
        <mxCell id="GDVbqABVd0ClRPIk_4P2-16" value="[D] HomeDocente" style="swimlane;whiteSpace=wrap;html=1;" vertex="1" parent="1">
          <mxGeometry x="450" y="60" width="240" height="290" as="geometry">
            <mxRectangle x="270" y="420" width="120" height="30" as="alternateBounds" />
          </mxGeometry>
        </mxCell>
        <mxCell id="GDVbqABVd0ClRPIk_4P2-17" value="&amp;lt;&amp;lt;List&amp;gt;&amp;gt; Corsi&lt;div&gt;&lt;br&gt;&lt;/div&gt;" style="rounded=1;whiteSpace=wrap;html=1;fillColor=#C2C2C2;" vertex="1" parent="GDVbqABVd0ClRPIk_4P2-16">
          <mxGeometry x="40" y="110" width="170" height="70" as="geometry" />
        </mxCell>
        <mxCell id="GDVbqABVd0ClRPIk_4P2-18" value="" style="ellipse;whiteSpace=wrap;html=1;aspect=fixed;" vertex="1" parent="GDVbqABVd0ClRPIk_4P2-16">
          <mxGeometry x="200" y="170" width="20" height="20" as="geometry" />
        </mxCell>
        <mxCell id="GDVbqABVd0ClRPIk_4P2-19" value="selected" style="text;html=1;align=center;verticalAlign=middle;whiteSpace=wrap;rounded=0;" vertex="1" parent="GDVbqABVd0ClRPIk_4P2-16">
          <mxGeometry x="144" y="175" width="60" height="30" as="geometry" />
        </mxCell>
        <mxCell id="GDVbqABVd0ClRPIk_4P2-21" value="&amp;lt;&amp;lt;DataBinding&amp;gt;&amp;gt; Corso" style="rounded=0;whiteSpace=wrap;html=1;" vertex="1" parent="GDVbqABVd0ClRPIk_4P2-16">
          <mxGeometry x="50" y="150" width="150" height="20" as="geometry" />
        </mxCell>
        <mxCell id="GDVbqABVd0ClRPIk_4P2-38" value="click" style="text;html=1;align=center;verticalAlign=middle;whiteSpace=wrap;rounded=0;" vertex="1" parent="GDVbqABVd0ClRPIk_4P2-16">
          <mxGeometry x="20" y="36" width="60" height="30" as="geometry" />
        </mxCell>
        <mxCell id="GDVbqABVd0ClRPIk_4P2-55" value="&amp;lt;&amp;lt;Button&amp;gt;&amp;gt; Logout" style="rounded=1;whiteSpace=wrap;html=1;fillColor=#C2C2C2;" vertex="1" parent="GDVbqABVd0ClRPIk_4P2-16">
          <mxGeometry x="70" y="40" width="90" height="50" as="geometry" />
        </mxCell>
        <mxCell id="GDVbqABVd0ClRPIk_4P2-25" value="" style="ellipse;whiteSpace=wrap;html=1;aspect=fixed;shadow=0;" vertex="1" parent="GDVbqABVd0ClRPIk_4P2-16">
          <mxGeometry x="60" y="55" width="20" height="20" as="geometry" />
        </mxCell>
        <mxCell id="GDVbqABVd0ClRPIk_4P2-57" value="&amp;lt;&amp;lt;Button&amp;gt;&amp;gt; Verbali" style="rounded=1;whiteSpace=wrap;html=1;fillColor=#C2C2C2;" vertex="1" parent="GDVbqABVd0ClRPIk_4P2-16">
          <mxGeometry x="70" y="210" width="90" height="50" as="geometry" />
        </mxCell>
        <mxCell id="GDVbqABVd0ClRPIk_4P2-58" value="" style="ellipse;whiteSpace=wrap;html=1;aspect=fixed;shadow=0;" vertex="1" parent="GDVbqABVd0ClRPIk_4P2-16">
          <mxGeometry x="150" y="225" width="20" height="20" as="geometry" />
        </mxCell>
        <mxCell id="GDVbqABVd0ClRPIk_4P2-56" value="click" style="text;html=1;align=center;verticalAlign=middle;whiteSpace=wrap;rounded=0;" vertex="1" parent="GDVbqABVd0ClRPIk_4P2-16">
          <mxGeometry x="150" y="205" width="60" height="30" as="geometry" />
        </mxCell>
        <mxCell id="GDVbqABVd0ClRPIk_4P2-28" value="" style="ellipse;whiteSpace=wrap;html=1;aspect=fixed;" vertex="1" parent="1">
          <mxGeometry x="430" y="470" width="20" height="20" as="geometry" />
        </mxCell>
        <mxCell id="GDVbqABVd0ClRPIk_4P2-29" value="Studente -&amp;nbsp;success" style="text;html=1;align=center;verticalAlign=middle;whiteSpace=wrap;rounded=0;" vertex="1" parent="1">
          <mxGeometry x="450" y="465" width="120" height="30" as="geometry" />
        </mxCell>
        <mxCell id="GDVbqABVd0ClRPIk_4P2-42" value="AppelliDocente" style="swimlane;whiteSpace=wrap;html=1;startSize=23;" vertex="1" parent="1">
          <mxGeometry x="925" y="40" width="415" height="220" as="geometry">
            <mxRectangle x="270" y="420" width="120" height="30" as="alternateBounds" />
          </mxGeometry>
        </mxCell>
        <mxCell id="GDVbqABVd0ClRPIk_4P2-43" value="&amp;lt;&amp;lt;List&amp;gt;&amp;gt; Appelli&lt;div&gt;&lt;br&gt;&lt;/div&gt;" style="rounded=1;whiteSpace=wrap;html=1;fillColor=#C2C2C2;" vertex="1" parent="GDVbqABVd0ClRPIk_4P2-42">
          <mxGeometry x="110" y="110" width="190" height="70" as="geometry" />
        </mxCell>
        <mxCell id="GDVbqABVd0ClRPIk_4P2-44" value="" style="ellipse;whiteSpace=wrap;html=1;aspect=fixed;" vertex="1" parent="GDVbqABVd0ClRPIk_4P2-42">
          <mxGeometry x="290" y="170" width="20" height="20" as="geometry" />
        </mxCell>
        <mxCell id="GDVbqABVd0ClRPIk_4P2-45" value="selected" style="text;html=1;align=center;verticalAlign=middle;whiteSpace=wrap;rounded=0;" vertex="1" parent="GDVbqABVd0ClRPIk_4P2-42">
          <mxGeometry x="234" y="175" width="60" height="30" as="geometry" />
        </mxCell>
        <mxCell id="GDVbqABVd0ClRPIk_4P2-46" value="&amp;lt;&amp;lt;DataBinding&amp;gt;&amp;gt; Data appello" style="rounded=0;whiteSpace=wrap;html=1;" vertex="1" parent="GDVbqABVd0ClRPIk_4P2-42">
          <mxGeometry x="120" y="150" width="170" height="20" as="geometry" />
        </mxCell>
        <mxCell id="GDVbqABVd0ClRPIk_4P2-62" value="click" style="text;html=1;align=center;verticalAlign=middle;whiteSpace=wrap;rounded=0;" vertex="1" parent="GDVbqABVd0ClRPIk_4P2-42">
          <mxGeometry x="230" y="24" width="60" height="30" as="geometry" />
        </mxCell>
        <mxCell id="GDVbqABVd0ClRPIk_4P2-63" value="&amp;lt;&amp;lt;Button&amp;gt;&amp;gt; Logout" style="rounded=1;whiteSpace=wrap;html=1;fillColor=#C2C2C2;" vertex="1" parent="GDVbqABVd0ClRPIk_4P2-42">
          <mxGeometry x="280" y="40" width="90" height="50" as="geometry" />
        </mxCell>
        <mxCell id="GDVbqABVd0ClRPIk_4P2-64" value="" style="ellipse;whiteSpace=wrap;html=1;aspect=fixed;shadow=0;" vertex="1" parent="GDVbqABVd0ClRPIk_4P2-42">
          <mxGeometry x="275" y="29" width="20" height="20" as="geometry" />
        </mxCell>
        <mxCell id="GDVbqABVd0ClRPIk_4P2-79" value="click" style="text;html=1;align=center;verticalAlign=middle;whiteSpace=wrap;rounded=0;" vertex="1" parent="GDVbqABVd0ClRPIk_4P2-42">
          <mxGeometry x="10" y="36" width="60" height="30" as="geometry" />
        </mxCell>
        <mxCell id="GDVbqABVd0ClRPIk_4P2-80" value="&amp;lt;&amp;lt;Button&amp;gt;&amp;gt; Indietro" style="rounded=1;whiteSpace=wrap;html=1;fillColor=#C2C2C2;" vertex="1" parent="GDVbqABVd0ClRPIk_4P2-42">
          <mxGeometry x="60" y="40" width="90" height="50" as="geometry" />
        </mxCell>
        <mxCell id="GDVbqABVd0ClRPIk_4P2-83" style="edgeStyle=orthogonalEdgeStyle;rounded=0;orthogonalLoop=1;jettySize=auto;html=1;" edge="1" parent="GDVbqABVd0ClRPIk_4P2-42" source="GDVbqABVd0ClRPIk_4P2-81">
          <mxGeometry relative="1" as="geometry">
            <mxPoint x="-235" y="65" as="targetPoint" />
          </mxGeometry>
        </mxCell>
        <mxCell id="GDVbqABVd0ClRPIk_4P2-81" value="" style="ellipse;whiteSpace=wrap;html=1;aspect=fixed;shadow=0;" vertex="1" parent="GDVbqABVd0ClRPIk_4P2-42">
          <mxGeometry x="50" y="55" width="20" height="20" as="geometry" />
        </mxCell>
        <mxCell id="GDVbqABVd0ClRPIk_4P2-75" style="edgeStyle=orthogonalEdgeStyle;rounded=0;orthogonalLoop=1;jettySize=auto;html=1;entryX=0;entryY=0.5;entryDx=0;entryDy=0;" edge="1" parent="1" source="GDVbqABVd0ClRPIk_4P2-58" target="GDVbqABVd0ClRPIk_4P2-67">
          <mxGeometry relative="1" as="geometry" />
        </mxCell>
        <mxCell id="GDVbqABVd0ClRPIk_4P2-65" style="edgeStyle=orthogonalEdgeStyle;rounded=0;orthogonalLoop=1;jettySize=auto;html=1;entryX=0.5;entryY=0;entryDx=0;entryDy=0;" edge="1" parent="1" source="GDVbqABVd0ClRPIk_4P2-64" target="GDVbqABVd0ClRPIk_4P2-1">
          <mxGeometry relative="1" as="geometry">
            <Array as="points">
              <mxPoint x="1210" />
              <mxPoint x="185" />
            </Array>
          </mxGeometry>
        </mxCell>
        <mxCell id="GDVbqABVd0ClRPIk_4P2-66" style="edgeStyle=orthogonalEdgeStyle;rounded=0;orthogonalLoop=1;jettySize=auto;html=1;entryX=0.75;entryY=0;entryDx=0;entryDy=0;" edge="1" parent="1" source="GDVbqABVd0ClRPIk_4P2-25" target="GDVbqABVd0ClRPIk_4P2-1">
          <mxGeometry relative="1" as="geometry" />
        </mxCell>
        <mxCell id="GDVbqABVd0ClRPIk_4P2-67" value="Verbali" style="swimlane;whiteSpace=wrap;html=1;startSize=23;" vertex="1" parent="1">
          <mxGeometry x="835" y="320" width="415" height="240" as="geometry">
            <mxRectangle x="270" y="420" width="120" height="30" as="alternateBounds" />
          </mxGeometry>
        </mxCell>
        <mxCell id="GDVbqABVd0ClRPIk_4P2-68" value="&amp;lt;&amp;lt;List&amp;gt;&amp;gt; Verbali&lt;div&gt;&lt;br&gt;&lt;/div&gt;" style="rounded=1;whiteSpace=wrap;html=1;fillColor=#C2C2C2;" vertex="1" parent="GDVbqABVd0ClRPIk_4P2-67">
          <mxGeometry x="110" y="110" width="190" height="70" as="geometry" />
        </mxCell>
        <mxCell id="GDVbqABVd0ClRPIk_4P2-69" value="" style="ellipse;whiteSpace=wrap;html=1;aspect=fixed;" vertex="1" parent="GDVbqABVd0ClRPIk_4P2-67">
          <mxGeometry x="290" y="170" width="20" height="20" as="geometry" />
        </mxCell>
        <mxCell id="GDVbqABVd0ClRPIk_4P2-70" value="selected" style="text;html=1;align=center;verticalAlign=middle;whiteSpace=wrap;rounded=0;" vertex="1" parent="GDVbqABVd0ClRPIk_4P2-67">
          <mxGeometry x="234" y="175" width="60" height="30" as="geometry" />
        </mxCell>
        <mxCell id="GDVbqABVd0ClRPIk_4P2-71" value="&amp;lt;&amp;lt;DataBinding&amp;gt;&amp;gt; Cod verbale" style="rounded=0;whiteSpace=wrap;html=1;" vertex="1" parent="GDVbqABVd0ClRPIk_4P2-67">
          <mxGeometry x="120" y="150" width="170" height="20" as="geometry" />
        </mxCell>
        <mxCell id="GDVbqABVd0ClRPIk_4P2-72" value="click" style="text;html=1;align=center;verticalAlign=middle;whiteSpace=wrap;rounded=0;" vertex="1" parent="GDVbqABVd0ClRPIk_4P2-67">
          <mxGeometry x="225" y="25" width="60" height="30" as="geometry" />
        </mxCell>
        <mxCell id="GDVbqABVd0ClRPIk_4P2-73" value="&amp;lt;&amp;lt;Button&amp;gt;&amp;gt; Logout" style="rounded=1;whiteSpace=wrap;html=1;fillColor=#C2C2C2;" vertex="1" parent="GDVbqABVd0ClRPIk_4P2-67">
          <mxGeometry x="280" y="40" width="90" height="50" as="geometry" />
        </mxCell>
        <mxCell id="GDVbqABVd0ClRPIk_4P2-74" value="" style="ellipse;whiteSpace=wrap;html=1;aspect=fixed;shadow=0;" vertex="1" parent="GDVbqABVd0ClRPIk_4P2-67">
          <mxGeometry x="270" y="31" width="20" height="20" as="geometry" />
        </mxCell>
        <mxCell id="GDVbqABVd0ClRPIk_4P2-77" style="edgeStyle=orthogonalEdgeStyle;rounded=0;orthogonalLoop=1;jettySize=auto;html=1;" edge="1" parent="1" source="GDVbqABVd0ClRPIk_4P2-18" target="GDVbqABVd0ClRPIk_4P2-42">
          <mxGeometry relative="1" as="geometry">
            <mxPoint x="940" y="100" as="targetPoint" />
          </mxGeometry>
        </mxCell>
        <mxCell id="GDVbqABVd0ClRPIk_4P2-85" value="click" style="text;html=1;align=center;verticalAlign=middle;whiteSpace=wrap;rounded=0;" vertex="1" parent="1">
          <mxGeometry x="845" y="356" width="60" height="30" as="geometry" />
        </mxCell>
        <mxCell id="GDVbqABVd0ClRPIk_4P2-86" value="&amp;lt;&amp;lt;Button&amp;gt;&amp;gt; Indietro" style="rounded=1;whiteSpace=wrap;html=1;fillColor=#C2C2C2;" vertex="1" parent="1">
          <mxGeometry x="895" y="360" width="90" height="50" as="geometry" />
        </mxCell>
        <mxCell id="GDVbqABVd0ClRPIk_4P2-88" style="edgeStyle=orthogonalEdgeStyle;rounded=0;orthogonalLoop=1;jettySize=auto;html=1;entryX=1;entryY=0.75;entryDx=0;entryDy=0;" edge="1" parent="1" source="GDVbqABVd0ClRPIk_4P2-87" target="GDVbqABVd0ClRPIk_4P2-16">
          <mxGeometry relative="1" as="geometry" />
        </mxCell>
        <mxCell id="GDVbqABVd0ClRPIk_4P2-87" value="" style="ellipse;whiteSpace=wrap;html=1;aspect=fixed;shadow=0;" vertex="1" parent="1">
          <mxGeometry x="885" y="375" width="20" height="20" as="geometry" />
        </mxCell>
        <mxCell id="GDVbqABVd0ClRPIk_4P2-90" value="Iscritti" style="swimlane;whiteSpace=wrap;html=1;startSize=23;" vertex="1" parent="1">
          <mxGeometry x="1535" y="40" width="415" height="290" as="geometry">
            <mxRectangle x="270" y="420" width="120" height="30" as="alternateBounds" />
          </mxGeometry>
        </mxCell>
        <mxCell id="GDVbqABVd0ClRPIk_4P2-91" value="&amp;lt;&amp;lt;List&amp;gt;&amp;gt; Iscritti&lt;div&gt;&lt;br&gt;&lt;/div&gt;&lt;div&gt;&lt;br&gt;&lt;/div&gt;&lt;div&gt;&lt;br&gt;&lt;/div&gt;&lt;div&gt;&lt;br&gt;&lt;/div&gt;&lt;div&gt;&lt;br&gt;&lt;/div&gt;" style="rounded=1;whiteSpace=wrap;html=1;fillColor=#C2C2C2;" vertex="1" parent="GDVbqABVd0ClRPIk_4P2-90">
          <mxGeometry x="100" y="100" width="220" height="110" as="geometry" />
        </mxCell>
        <mxCell id="GDVbqABVd0ClRPIk_4P2-95" value="click" style="text;html=1;align=center;verticalAlign=middle;whiteSpace=wrap;rounded=0;" vertex="1" parent="GDVbqABVd0ClRPIk_4P2-90">
          <mxGeometry x="230" y="24" width="60" height="30" as="geometry" />
        </mxCell>
        <mxCell id="GDVbqABVd0ClRPIk_4P2-96" value="&amp;lt;&amp;lt;Button&amp;gt;&amp;gt; Logout" style="rounded=1;whiteSpace=wrap;html=1;fillColor=#C2C2C2;" vertex="1" parent="GDVbqABVd0ClRPIk_4P2-90">
          <mxGeometry x="280" y="40" width="90" height="50" as="geometry" />
        </mxCell>
        <mxCell id="GDVbqABVd0ClRPIk_4P2-97" value="" style="ellipse;whiteSpace=wrap;html=1;aspect=fixed;shadow=0;" vertex="1" parent="GDVbqABVd0ClRPIk_4P2-90">
          <mxGeometry x="275" y="29" width="20" height="20" as="geometry" />
        </mxCell>
        <mxCell id="GDVbqABVd0ClRPIk_4P2-98" value="click" style="text;html=1;align=center;verticalAlign=middle;whiteSpace=wrap;rounded=0;" vertex="1" parent="GDVbqABVd0ClRPIk_4P2-90">
          <mxGeometry x="10" y="36" width="60" height="30" as="geometry" />
        </mxCell>
        <mxCell id="GDVbqABVd0ClRPIk_4P2-99" value="&amp;lt;&amp;lt;Button&amp;gt;&amp;gt; Indietro" style="rounded=1;whiteSpace=wrap;html=1;fillColor=#C2C2C2;" vertex="1" parent="GDVbqABVd0ClRPIk_4P2-90">
          <mxGeometry x="60" y="40" width="90" height="50" as="geometry" />
        </mxCell>
        <mxCell id="GDVbqABVd0ClRPIk_4P2-101" value="" style="ellipse;whiteSpace=wrap;html=1;aspect=fixed;shadow=0;" vertex="1" parent="GDVbqABVd0ClRPIk_4P2-90">
          <mxGeometry x="50" y="55" width="20" height="20" as="geometry" />
        </mxCell>
        <mxCell id="GDVbqABVd0ClRPIk_4P2-105" value="&amp;lt;&amp;lt;Button&amp;gt;&amp;gt; Modifica&lt;div&gt;&lt;br&gt;&lt;/div&gt;&lt;div&gt;&lt;br&gt;&lt;/div&gt;" style="rounded=1;whiteSpace=wrap;html=1;fillColor=#C2C2C2;" vertex="1" parent="GDVbqABVd0ClRPIk_4P2-90">
          <mxGeometry x="125" y="130" width="170" height="60.5" as="geometry" />
        </mxCell>
        <mxCell id="GDVbqABVd0ClRPIk_4P2-106" value="&amp;lt;&amp;lt;DataBinding&amp;gt;&amp;gt; Studente" style="rounded=0;whiteSpace=wrap;html=1;" vertex="1" parent="GDVbqABVd0ClRPIk_4P2-90">
          <mxGeometry x="132.75" y="155.75" width="154.5" height="22.5" as="geometry" />
        </mxCell>
        <mxCell id="GDVbqABVd0ClRPIk_4P2-138" value="click" style="text;html=1;align=center;verticalAlign=middle;whiteSpace=wrap;rounded=0;" vertex="1" parent="GDVbqABVd0ClRPIk_4P2-90">
          <mxGeometry x="70" y="260" width="60" height="30" as="geometry" />
        </mxCell>
        <mxCell id="GDVbqABVd0ClRPIk_4P2-139" value="&amp;lt;&amp;lt;Button&amp;gt;&amp;gt; Pubblica" style="rounded=1;whiteSpace=wrap;html=1;fillColor=#C2C2C2;" vertex="1" parent="GDVbqABVd0ClRPIk_4P2-90">
          <mxGeometry x="30" y="218" width="90" height="50" as="geometry" />
        </mxCell>
        <mxCell id="GDVbqABVd0ClRPIk_4P2-140" value="" style="ellipse;whiteSpace=wrap;html=1;aspect=fixed;shadow=0;" vertex="1" parent="GDVbqABVd0ClRPIk_4P2-90">
          <mxGeometry x="65" y="262" width="20" height="20" as="geometry" />
        </mxCell>
        <mxCell id="GDVbqABVd0ClRPIk_4P2-107" value="" style="ellipse;whiteSpace=wrap;html=1;aspect=fixed;shadow=0;" vertex="1" parent="GDVbqABVd0ClRPIk_4P2-90">
          <mxGeometry x="287.25" y="120" width="20" height="20" as="geometry" />
        </mxCell>
        <mxCell id="GDVbqABVd0ClRPIk_4P2-185" value="table header click" style="text;html=1;align=center;verticalAlign=middle;whiteSpace=wrap;rounded=0;" vertex="1" parent="GDVbqABVd0ClRPIk_4P2-90">
          <mxGeometry x="328" y="192" width="70" height="30" as="geometry" />
        </mxCell>
        <mxCell id="GDVbqABVd0ClRPIk_4P2-198" value="click" style="text;html=1;align=center;verticalAlign=middle;whiteSpace=wrap;rounded=0;" vertex="1" parent="GDVbqABVd0ClRPIk_4P2-90">
          <mxGeometry x="229" y="260" width="60" height="30" as="geometry" />
        </mxCell>
        <mxCell id="GDVbqABVd0ClRPIk_4P2-102" style="edgeStyle=orthogonalEdgeStyle;rounded=0;orthogonalLoop=1;jettySize=auto;html=1;" edge="1" parent="1" source="GDVbqABVd0ClRPIk_4P2-101">
          <mxGeometry relative="1" as="geometry">
            <mxPoint x="1340" y="105" as="targetPoint" />
          </mxGeometry>
        </mxCell>
        <mxCell id="GDVbqABVd0ClRPIk_4P2-103" style="edgeStyle=orthogonalEdgeStyle;rounded=0;orthogonalLoop=1;jettySize=auto;html=1;entryX=0;entryY=0.5;entryDx=0;entryDy=0;" edge="1" parent="1" source="GDVbqABVd0ClRPIk_4P2-44" target="GDVbqABVd0ClRPIk_4P2-90">
          <mxGeometry relative="1" as="geometry" />
        </mxCell>
        <mxCell id="GDVbqABVd0ClRPIk_4P2-104" style="edgeStyle=orthogonalEdgeStyle;rounded=0;orthogonalLoop=1;jettySize=auto;html=1;entryX=0.384;entryY=0.002;entryDx=0;entryDy=0;entryPerimeter=0;" edge="1" parent="1" source="GDVbqABVd0ClRPIk_4P2-97" target="GDVbqABVd0ClRPIk_4P2-1">
          <mxGeometry relative="1" as="geometry">
            <Array as="points">
              <mxPoint x="1820" y="-30" />
              <mxPoint x="161" y="-30" />
            </Array>
          </mxGeometry>
        </mxCell>
        <mxCell id="GDVbqABVd0ClRPIk_4P2-123" style="edgeStyle=orthogonalEdgeStyle;rounded=0;orthogonalLoop=1;jettySize=auto;html=1;entryX=0;entryY=0.5;entryDx=0;entryDy=0;" edge="1" parent="1" source="GDVbqABVd0ClRPIk_4P2-107" target="GDVbqABVd0ClRPIk_4P2-108">
          <mxGeometry relative="1" as="geometry">
            <Array as="points">
              <mxPoint x="1900" y="170" />
              <mxPoint x="1900" y="150" />
            </Array>
          </mxGeometry>
        </mxCell>
        <mxCell id="GDVbqABVd0ClRPIk_4P2-108" value="ModificaVoto" style="swimlane;whiteSpace=wrap;html=1;startSize=23;" vertex="1" parent="1">
          <mxGeometry x="2105" y="40" width="215" height="220" as="geometry">
            <mxRectangle x="270" y="420" width="120" height="30" as="alternateBounds" />
          </mxGeometry>
        </mxCell>
        <mxCell id="GDVbqABVd0ClRPIk_4P2-113" value="click" style="text;html=1;align=center;verticalAlign=middle;whiteSpace=wrap;rounded=0;" vertex="1" parent="GDVbqABVd0ClRPIk_4P2-108">
          <mxGeometry x="10" y="36" width="60" height="30" as="geometry" />
        </mxCell>
        <mxCell id="GDVbqABVd0ClRPIk_4P2-114" value="&amp;lt;&amp;lt;Button&amp;gt;&amp;gt; Indietro" style="rounded=1;whiteSpace=wrap;html=1;fillColor=#C2C2C2;" vertex="1" parent="GDVbqABVd0ClRPIk_4P2-108">
          <mxGeometry x="60" y="40" width="90" height="50" as="geometry" />
        </mxCell>
        <mxCell id="GDVbqABVd0ClRPIk_4P2-115" value="" style="ellipse;whiteSpace=wrap;html=1;aspect=fixed;shadow=0;" vertex="1" parent="GDVbqABVd0ClRPIk_4P2-108">
          <mxGeometry x="50" y="55" width="20" height="20" as="geometry" />
        </mxCell>
        <mxCell id="GDVbqABVd0ClRPIk_4P2-126" value="submit" style="text;html=1;align=center;verticalAlign=middle;whiteSpace=wrap;rounded=0;" vertex="1" parent="GDVbqABVd0ClRPIk_4P2-108">
          <mxGeometry x="155" y="121" width="60" height="30" as="geometry" />
        </mxCell>
        <mxCell id="GDVbqABVd0ClRPIk_4P2-119" style="edgeStyle=orthogonalEdgeStyle;rounded=0;orthogonalLoop=1;jettySize=auto;html=1;" edge="1" parent="1" source="GDVbqABVd0ClRPIk_4P2-115">
          <mxGeometry relative="1" as="geometry">
            <mxPoint x="1950" y="105" as="targetPoint" />
          </mxGeometry>
        </mxCell>
        <mxCell id="GDVbqABVd0ClRPIk_4P2-125" style="edgeStyle=orthogonalEdgeStyle;rounded=0;orthogonalLoop=1;jettySize=auto;html=1;entryX=0;entryY=0.5;entryDx=0;entryDy=0;" edge="1" parent="1" source="GDVbqABVd0ClRPIk_4P2-120" target="GDVbqABVd0ClRPIk_4P2-124">
          <mxGeometry relative="1" as="geometry" />
        </mxCell>
        <mxCell id="GDVbqABVd0ClRPIk_4P2-120" value="&amp;lt;&amp;lt;Form&amp;gt;&amp;gt; Voto" style="rounded=1;whiteSpace=wrap;html=1;fillColor=#C2C2C2;" vertex="1" parent="1">
          <mxGeometry x="2150" y="163" width="120" height="60" as="geometry" />
        </mxCell>
        <mxCell id="GDVbqABVd0ClRPIk_4P2-121" value="" style="ellipse;whiteSpace=wrap;html=1;aspect=fixed;" vertex="1" parent="1">
          <mxGeometry x="2260" y="183" width="20" height="20" as="geometry" />
        </mxCell>
        <mxCell id="GDVbqABVd0ClRPIk_4P2-124" value="Modifica voto" style="shape=hexagon;perimeter=hexagonPerimeter2;whiteSpace=wrap;html=1;fixedSize=1;fillColor=#C2C2C2;" vertex="1" parent="1">
          <mxGeometry x="2370" y="173" width="100" height="40" as="geometry" />
        </mxCell>
        <mxCell id="GDVbqABVd0ClRPIk_4P2-134" style="edgeStyle=orthogonalEdgeStyle;rounded=0;orthogonalLoop=1;jettySize=auto;html=1;entryX=1;entryY=0.25;entryDx=0;entryDy=0;" edge="1" parent="1" source="GDVbqABVd0ClRPIk_4P2-128" target="GDVbqABVd0ClRPIk_4P2-108">
          <mxGeometry relative="1" as="geometry">
            <mxPoint x="2470" y="80" as="targetPoint" />
            <Array as="points">
              <mxPoint x="2470" y="95" />
            </Array>
          </mxGeometry>
        </mxCell>
        <mxCell id="GDVbqABVd0ClRPIk_4P2-128" value="" style="ellipse;whiteSpace=wrap;html=1;aspect=fixed;" vertex="1" parent="1">
          <mxGeometry x="2460" y="183" width="20" height="20" as="geometry" />
        </mxCell>
        <mxCell id="GDVbqABVd0ClRPIk_4P2-129" value="error" style="text;html=1;align=center;verticalAlign=middle;whiteSpace=wrap;rounded=0;" vertex="1" parent="1">
          <mxGeometry x="2466" y="178" width="60" height="30" as="geometry" />
        </mxCell>
        <mxCell id="GDVbqABVd0ClRPIk_4P2-133" style="edgeStyle=orthogonalEdgeStyle;rounded=0;orthogonalLoop=1;jettySize=auto;html=1;" edge="1" parent="1" source="GDVbqABVd0ClRPIk_4P2-131">
          <mxGeometry relative="1" as="geometry">
            <mxPoint x="1949.9999999999995" y="240" as="targetPoint" />
            <Array as="points">
              <mxPoint x="2420" y="290" />
              <mxPoint x="2030" y="290" />
              <mxPoint x="2030" y="240" />
            </Array>
          </mxGeometry>
        </mxCell>
        <mxCell id="GDVbqABVd0ClRPIk_4P2-131" value="" style="ellipse;whiteSpace=wrap;html=1;aspect=fixed;" vertex="1" parent="1">
          <mxGeometry x="2410" y="203" width="20" height="20" as="geometry" />
        </mxCell>
        <mxCell id="GDVbqABVd0ClRPIk_4P2-132" value="success" style="text;html=1;align=center;verticalAlign=middle;whiteSpace=wrap;rounded=0;" vertex="1" parent="1">
          <mxGeometry x="2425" y="204" width="60" height="30" as="geometry" />
        </mxCell>
        <mxCell id="GDVbqABVd0ClRPIk_4P2-141" value="Pubblica" style="shape=hexagon;perimeter=hexagonPerimeter2;whiteSpace=wrap;html=1;fixedSize=1;fillColor=#C2C2C2;" vertex="1" parent="1">
          <mxGeometry x="1565" y="365" width="90" height="40" as="geometry" />
        </mxCell>
        <mxCell id="GDVbqABVd0ClRPIk_4P2-146" style="edgeStyle=orthogonalEdgeStyle;rounded=0;orthogonalLoop=1;jettySize=auto;html=1;entryX=0.75;entryY=1;entryDx=0;entryDy=0;" edge="1" parent="1">
          <mxGeometry relative="1" as="geometry">
            <mxPoint x="1664.6602540378444" y="384" as="sourcePoint" />
            <mxPoint x="1711.25" y="330" as="targetPoint" />
            <Array as="points">
              <mxPoint x="1711" y="384" />
            </Array>
          </mxGeometry>
        </mxCell>
        <mxCell id="GDVbqABVd0ClRPIk_4P2-142" value="" style="ellipse;whiteSpace=wrap;html=1;aspect=fixed;" vertex="1" parent="1">
          <mxGeometry x="1646" y="375" width="20" height="20" as="geometry" />
        </mxCell>
        <mxCell id="GDVbqABVd0ClRPIk_4P2-143" value="error" style="text;html=1;align=center;verticalAlign=middle;whiteSpace=wrap;rounded=0;" vertex="1" parent="1">
          <mxGeometry x="1635" y="386" width="60" height="30" as="geometry" />
        </mxCell>
        <mxCell id="GDVbqABVd0ClRPIk_4P2-197" style="edgeStyle=orthogonalEdgeStyle;rounded=0;orthogonalLoop=1;jettySize=auto;html=1;" edge="1" parent="1" source="GDVbqABVd0ClRPIk_4P2-144">
          <mxGeometry relative="1" as="geometry">
            <mxPoint x="1565" y="330" as="targetPoint" />
          </mxGeometry>
        </mxCell>
        <mxCell id="GDVbqABVd0ClRPIk_4P2-144" value="" style="ellipse;whiteSpace=wrap;html=1;aspect=fixed;" vertex="1" parent="1">
          <mxGeometry x="1555" y="375" width="20" height="20" as="geometry" />
        </mxCell>
        <mxCell id="GDVbqABVd0ClRPIk_4P2-145" value="success" style="text;html=1;align=center;verticalAlign=middle;whiteSpace=wrap;rounded=0;" vertex="1" parent="1">
          <mxGeometry x="1505" y="356" width="60" height="30" as="geometry" />
        </mxCell>
        <mxCell id="GDVbqABVd0ClRPIk_4P2-149" style="edgeStyle=orthogonalEdgeStyle;rounded=0;orthogonalLoop=1;jettySize=auto;html=1;" edge="1" parent="1" source="GDVbqABVd0ClRPIk_4P2-140" target="GDVbqABVd0ClRPIk_4P2-141">
          <mxGeometry relative="1" as="geometry" />
        </mxCell>
        <mxCell id="GDVbqABVd0ClRPIk_4P2-169" value="Verbali" style="swimlane;whiteSpace=wrap;html=1;startSize=23;" vertex="1" parent="1">
          <mxGeometry x="1325" y="320" width="165" height="240" as="geometry">
            <mxRectangle x="270" y="420" width="120" height="30" as="alternateBounds" />
          </mxGeometry>
        </mxCell>
        <mxCell id="GDVbqABVd0ClRPIk_4P2-170" value="&lt;div&gt;&amp;lt;&amp;lt;Form&amp;gt;&amp;gt;&amp;nbsp;&lt;span style=&quot;background-color: transparent; color: light-dark(rgb(0, 0, 0), rgb(255, 255, 255));&quot;&gt;Verbale&lt;/span&gt;&lt;/div&gt;" style="rounded=1;whiteSpace=wrap;html=1;fillColor=#C2C2C2;" vertex="1" parent="GDVbqABVd0ClRPIk_4P2-169">
          <mxGeometry x="10" y="130" width="140" height="70" as="geometry" />
        </mxCell>
        <mxCell id="GDVbqABVd0ClRPIk_4P2-177" value="click" style="text;html=1;align=center;verticalAlign=middle;whiteSpace=wrap;rounded=0;" vertex="1" parent="GDVbqABVd0ClRPIk_4P2-169">
          <mxGeometry x="-5" y="36" width="60" height="30" as="geometry" />
        </mxCell>
        <mxCell id="GDVbqABVd0ClRPIk_4P2-178" value="&amp;lt;&amp;lt;Button&amp;gt;&amp;gt; Indietro" style="rounded=1;whiteSpace=wrap;html=1;fillColor=#C2C2C2;" vertex="1" parent="GDVbqABVd0ClRPIk_4P2-169">
          <mxGeometry x="45" y="40" width="90" height="50" as="geometry" />
        </mxCell>
        <mxCell id="GDVbqABVd0ClRPIk_4P2-180" style="edgeStyle=orthogonalEdgeStyle;rounded=0;orthogonalLoop=1;jettySize=auto;html=1;" edge="1" parent="GDVbqABVd0ClRPIk_4P2-169" source="GDVbqABVd0ClRPIk_4P2-179">
          <mxGeometry relative="1" as="geometry">
            <mxPoint x="-75" y="65" as="targetPoint" />
          </mxGeometry>
        </mxCell>
        <mxCell id="GDVbqABVd0ClRPIk_4P2-179" value="" style="ellipse;whiteSpace=wrap;html=1;aspect=fixed;shadow=0;" vertex="1" parent="GDVbqABVd0ClRPIk_4P2-169">
          <mxGeometry x="35" y="55" width="20" height="20" as="geometry" />
        </mxCell>
        <mxCell id="GDVbqABVd0ClRPIk_4P2-181" style="edgeStyle=orthogonalEdgeStyle;rounded=0;orthogonalLoop=1;jettySize=auto;html=1;entryX=0;entryY=0.5;entryDx=0;entryDy=0;" edge="1" parent="1" source="GDVbqABVd0ClRPIk_4P2-69" target="GDVbqABVd0ClRPIk_4P2-169">
          <mxGeometry relative="1" as="geometry">
            <Array as="points">
              <mxPoint x="1290" y="500" />
              <mxPoint x="1290" y="440" />
            </Array>
          </mxGeometry>
        </mxCell>
        <mxCell id="GDVbqABVd0ClRPIk_4P2-183" value="click" style="text;html=1;align=center;verticalAlign=middle;whiteSpace=wrap;rounded=0;" vertex="1" parent="1">
          <mxGeometry x="1795" y="137" width="60" height="30" as="geometry" />
        </mxCell>
        <mxCell id="GDVbqABVd0ClRPIk_4P2-194" style="edgeStyle=orthogonalEdgeStyle;rounded=0;orthogonalLoop=1;jettySize=auto;html=1;entryX=0.5;entryY=0;entryDx=0;entryDy=0;" edge="1" parent="1" source="GDVbqABVd0ClRPIk_4P2-184" target="GDVbqABVd0ClRPIk_4P2-186">
          <mxGeometry relative="1" as="geometry">
            <mxPoint x="1849.25" y="310" as="targetPoint" />
            <Array as="points">
              <mxPoint x="1849" y="300" />
              <mxPoint x="1930" y="300" />
            </Array>
          </mxGeometry>
        </mxCell>
        <mxCell id="GDVbqABVd0ClRPIk_4P2-184" value="" style="ellipse;whiteSpace=wrap;html=1;aspect=fixed;shadow=0;" vertex="1" parent="1">
          <mxGeometry x="1839.25" y="240" width="20" height="20" as="geometry" />
        </mxCell>
        <mxCell id="GDVbqABVd0ClRPIk_4P2-195" style="edgeStyle=orthogonalEdgeStyle;rounded=0;orthogonalLoop=1;jettySize=auto;html=1;" edge="1" parent="1" source="GDVbqABVd0ClRPIk_4P2-186">
          <mxGeometry relative="1" as="geometry">
            <mxPoint x="1840" y="330" as="targetPoint" />
          </mxGeometry>
        </mxCell>
        <mxCell id="GDVbqABVd0ClRPIk_4P2-186" value="Riordina" style="shape=hexagon;perimeter=hexagonPerimeter2;whiteSpace=wrap;html=1;fixedSize=1;fillColor=#C2C2C2;" vertex="1" parent="1">
          <mxGeometry x="1885" y="365" width="90" height="40" as="geometry" />
        </mxCell>
        <mxCell id="GDVbqABVd0ClRPIk_4P2-196" style="edgeStyle=orthogonalEdgeStyle;rounded=0;orthogonalLoop=1;jettySize=auto;html=1;entryX=0.622;entryY=-0.003;entryDx=0;entryDy=0;entryPerimeter=0;" edge="1" parent="1" source="GDVbqABVd0ClRPIk_4P2-74" target="GDVbqABVd0ClRPIk_4P2-1">
          <mxGeometry relative="1" as="geometry">
            <mxPoint x="158.88885498046898" y="380" as="targetPoint" />
            <Array as="points">
              <mxPoint x="1115" y="290" />
              <mxPoint x="850" y="290" />
              <mxPoint x="850" y="30" />
              <mxPoint x="211" y="30" />
            </Array>
          </mxGeometry>
        </mxCell>
        <mxCell id="GDVbqABVd0ClRPIk_4P2-199" value="&amp;lt;&amp;lt;Button&amp;gt;&amp;gt; Verbalizza" style="rounded=1;whiteSpace=wrap;html=1;fillColor=#C2C2C2;" vertex="1" parent="1">
          <mxGeometry x="1725" y="258" width="90" height="50" as="geometry" />
        </mxCell>
        <mxCell id="GDVbqABVd0ClRPIk_4P2-202" style="edgeStyle=orthogonalEdgeStyle;rounded=0;orthogonalLoop=1;jettySize=auto;html=1;" edge="1" parent="1" source="GDVbqABVd0ClRPIk_4P2-200" target="GDVbqABVd0ClRPIk_4P2-201">
          <mxGeometry relative="1" as="geometry" />
        </mxCell>
        <mxCell id="GDVbqABVd0ClRPIk_4P2-200" value="" style="ellipse;whiteSpace=wrap;html=1;aspect=fixed;shadow=0;" vertex="1" parent="1">
          <mxGeometry x="1760" y="302" width="20" height="20" as="geometry" />
        </mxCell>
        <mxCell id="GDVbqABVd0ClRPIk_4P2-201" value="Crea verbale" style="shape=hexagon;perimeter=hexagonPerimeter2;whiteSpace=wrap;html=1;fixedSize=1;fillColor=#C2C2C2;" vertex="1" parent="1">
          <mxGeometry x="1700" y="430" width="90" height="40" as="geometry" />
        </mxCell>
        <mxCell id="GDVbqABVd0ClRPIk_4P2-207" style="edgeStyle=orthogonalEdgeStyle;rounded=0;orthogonalLoop=1;jettySize=auto;html=1;" edge="1" parent="1" source="GDVbqABVd0ClRPIk_4P2-203">
          <mxGeometry relative="1" as="geometry">
            <mxPoint x="1790" y="330" as="targetPoint" />
          </mxGeometry>
        </mxCell>
        <mxCell id="GDVbqABVd0ClRPIk_4P2-203" value="" style="ellipse;whiteSpace=wrap;html=1;aspect=fixed;shadow=0;" vertex="1" parent="1">
          <mxGeometry x="1780" y="440" width="20" height="20" as="geometry" />
        </mxCell>
        <mxCell id="GDVbqABVd0ClRPIk_4P2-204" value="error" style="text;html=1;align=center;verticalAlign=middle;whiteSpace=wrap;rounded=0;" vertex="1" parent="1">
          <mxGeometry x="1775" y="450" width="60" height="30" as="geometry" />
        </mxCell>
        <mxCell id="GDVbqABVd0ClRPIk_4P2-210" style="edgeStyle=orthogonalEdgeStyle;rounded=0;orthogonalLoop=1;jettySize=auto;html=1;" edge="1" parent="1" source="GDVbqABVd0ClRPIk_4P2-208" target="GDVbqABVd0ClRPIk_4P2-169">
          <mxGeometry relative="1" as="geometry">
            <Array as="points">
              <mxPoint x="1540" y="450" />
              <mxPoint x="1540" y="450" />
            </Array>
          </mxGeometry>
        </mxCell>
        <mxCell id="GDVbqABVd0ClRPIk_4P2-208" value="" style="ellipse;whiteSpace=wrap;html=1;aspect=fixed;shadow=0;" vertex="1" parent="1">
          <mxGeometry x="1690" y="440" width="20" height="20" as="geometry" />
        </mxCell>
        <mxCell id="GDVbqABVd0ClRPIk_4P2-209" value="success" style="text;html=1;align=center;verticalAlign=middle;whiteSpace=wrap;rounded=0;" vertex="1" parent="1">
          <mxGeometry x="1655" y="455" width="60" height="30" as="geometry" />
        </mxCell>
      </root>
    </mxGraphModel>
  </diagram>
</mxfile>
